<svg width="24" height="24" xmlns="http://www.w3.org/2000/svg"><defs><clipPath id="a"><path d="m6.658 9.558 2.795 2.83-2.182 2.141 1.397 1.396.083.093a.98.98 0 0 1-1.47 1.293L5.56 15.576l-3.18 3.136a.984.984 0 0 1-1.392 0l-.701-.7a.982.982 0 0 1 0-1.39l3.14-3.147-1.743-1.741-.082-.094a.983.983 0 0 1 1.475-1.297l1.397 1.396 2.182-2.18ZM4.772 0l11.752 11.738 1.397-1.396a.985.985 0 0 1 1.475 1.297l-.081.093-1.744 1.742 3.14 3.137a.981.981 0 0 1 0 1.39l-.701.7a.984.984 0 0 1-1.392 0l-3.18-3.126-1.718 1.737a.98.98 0 0 1-1.385.007.984.984 0 0 1-.086-1.3l.082-.093 1.398-1.397L1.977 2.791V0h2.795Zm14.25 0v2.782l-4.68 4.675-2.795-2.782L16.227 0h2.795Z"/></clipPath></defs><g clip-path="url(#a)" transform="translate(2 3)"><path d="M0 0h21v19H0V0z"/></g></svg>