<svg width="24" height="24" xmlns="http://www.w3.org/2000/svg"><defs><clipPath id="a"><path d="M10 0a.97.97 0 0 1 .713.287A.97.97 0 0 1 11 1c0 .283-.096.52-.287.712A.968.968 0 0 1 10 2H2v14h14V8c0-.283.096-.521.288-.713A.967.967 0 0 1 17 7c.283 0 .52.096.712.287.192.192.288.43.288.713v8c0 .55-.196 1.021-.587 1.413A1.928 1.928 0 0 1 16 18H2c-.55 0-1.021-.196-1.413-.587A1.928 1.928 0 0 1 0 16V2C0 1.45.196.979.587.587A1.928 1.928 0 0 1 2 0h8Zm2 12a.97.97 0 0 1 .713.287A.97.97 0 0 1 13 13c0 .283-.096.52-.287.712A.968.968 0 0 1 12 14H6a.965.965 0 0 1-.712-.288A.965.965 0 0 1 5 13c0-.283.096-.521.288-.713A.967.967 0 0 1 6 12h6Zm0-3a.97.97 0 0 1 .713.287A.97.97 0 0 1 13 10c0 .283-.096.52-.287.712A.968.968 0 0 1 12 11H6a.965.965 0 0 1-.712-.288A.965.965 0 0 1 5 10c0-.283.096-.521.288-.713A.967.967 0 0 1 6 9h6Zm0-3a.97.97 0 0 1 .713.287A.97.97 0 0 1 13 7c0 .283-.096.52-.287.712A.968.968 0 0 1 12 8H6a.965.965 0 0 1-.712-.288A.965.965 0 0 1 5 7c0-.283.096-.521.288-.713A.967.967 0 0 1 6 6h6ZM16.414.578c.271 0 .507.1.707.3.2.201.3.437.3.708 0 .271-.1.507-.3.707L16.414 3l.707.707c.2.2.3.436.3.707 0 .271-.1.507-.3.707-.2.2-.436.3-.707.3a.965.965 0 0 1-.707-.3L15 4.414l-.707.707c-.2.2-.436.3-.707.3a.968.968 0 0 1-.707-.3c-.2-.2-.3-.436-.3-.707 0-.271.1-.507.3-.707L13.586 3l-.707-.707c-.2-.2-.3-.436-.3-.708 0-.27.1-.506.3-.706.2-.2.435-.3.706-.3.272 0 .508.1.708.3l.707.707.707-.707c.2-.2.436-.3.707-.3Z"/></clipPath></defs><g clip-path="url(#a)" transform="translate(3 3)"><path d="M0 0h18v18H0V0z"/></g></svg>